# xmcd
#
# Track frame offsets:
# 150
# 18095
# 34190
# 49500
# 64650
# 80640
# 97687
# 115552
# 131527
# 145417
# 160790
# 177922
# 195290
# 211955
#
# Disc length: 3057 seconds
#
#
# Revision: 2
# Processed by: cddbd v1.5.2PL0 Copyright (c) Steve Scherf et al.
# Submitted via: FreeRIP 2.951 
#
DISCID=aa0bef0e
DTITLE=Various Artist - Maximum Dance 99-05
DYEAR=0099
DGENRE=Pop
TTITLE0=DJ I.c.o.n. - Vocome
TTITLE1=Sash! - Colour The World
TTITLE2=Veracocha - Carte Blanche
TTITLE3=Vengaboys - Boom Boom Boom Boom!!
TTITLE4=Members Of Mayday - Soundtropolis
TTITLE5=Pulsdriver Iv - Kiss That Sound
TTITLE6=System F - Out Of The Blue
TTITLE7=Taucher Battles Talla 2xlc - Nightshift
TTITLE8=Killerloop Meets John B. Norman - Chi Mai '99
TTITLE9=Blue Nature - A Life So Changed
TTITLE10=Silent Breed - In Vivo
TTITLE11=Viper - Blue Sunchine
TTITLE12=Miss Distess X - Seventeen
TTITLE13=Dj Dado and Simone Jay - Ready Or Not
EXTD=
EXTT0=
EXTT1=
EXTT2=
EXTT3=
EXTT4=
EXTT5=
EXTT6=
EXTT7=
EXTT8=
EXTT9=
EXTT10=
EXTT11=
EXTT12=
EXTT13=
PLAYORDER=
